<?xml version="1.0" encoding="UTF-8" standalone="no"?>
<svg
   xmlns:dc="http://purl.org/dc/elements/1.1/"
   xmlns:cc="http://creativecommons.org/ns#"
   xmlns:rdf="http://www.w3.org/1999/02/22-rdf-syntax-ns#"
   xmlns:svg="http://www.w3.org/2000/svg"
   xmlns="http://www.w3.org/2000/svg"
   xmlns:sodipodi="http://sodipodi.sourceforge.net/DTD/sodipodi-0.dtd"
   xmlns:inkscape="http://www.inkscape.org/namespaces/inkscape"
   version="1.0"
   width="1280.000000pt"
   height="1274.000000pt"
   viewBox="0 0 1280.000000 1274.000000"
   preserveAspectRatio="xMidYMid meet"
   id="svg3767"
   sodipodi:docname="logo.svg"
   inkscape:version="0.92.4 5da689c313, 2019-01-14">
  <metadata
     id="metadata3773">
    <rdf:RDF>
      <cc:Work
         rdf:about="">
        <dc:format>image/svg+xml</dc:format>
        <dc:type
           rdf:resource="http://purl.org/dc/dcmitype/StillImage" />
      </cc:Work>
    </rdf:RDF>
  </metadata>
  <defs
     id="defs3771" />
  <sodipodi:namedview
     pagecolor="#ffffff"
     bordercolor="#666666"
     borderopacity="1"
     objecttolerance="10"
     gridtolerance="10"
     guidetolerance="10"
     inkscape:pageopacity="0"
     inkscape:pageshadow="2"
     inkscape:window-width="3840"
     inkscape:window-height="2083"
     id="namedview3769"
     showgrid="false"
     inkscape:zoom="1.086146"
     inkscape:cx="677.4822"
     inkscape:cy="922.98826"
     inkscape:window-x="0"
     inkscape:window-y="0"
     inkscape:window-maximized="1"
     inkscape:current-layer="g3765" />
  <g
     transform="translate(0.000000,1274.000000) scale(0.100000,-0.100000)"
     fill="#000000"
     stroke="none"
     id="g3765">
    <path
       d="M7494 12714 c-34 -14 -80 -41 -104 -61 -43 -37 -43 -37 -126 -34 -73 2 -92 -1 -142 -24 -157 -72 -231 -242 -171 -400 30 -80 104 -154 184 -184 71 -27 178 -25 233 3 49 26 62 16 62 -46 0 -184 -113 -872 -149 -911 -4 -4 -65 4 -137 17 -189 36 -429 64 -602 72 -94 4 -159 12 -169 19 -15 11 -17 45 -16 336 0 414 17 595 70 762 18 57 35 91 63 121 70 76 72 162 7 248 -34 44 -73 66 -101 55 -9 -4 -30 -29 -47 -57 -54 -89 -90 -88 -145 1 -29 49 -40 59 -62 59 -39 0 -68 -24 -102 -83 -45 -79 -39 -164 16 -215 58 -55 104 -206 125 -417 19 -185 19 -786 0 -808 -10 -13 -31 -17 -90 -17 -177 0 -520 -41 -758 -91 -395 -82 -724 -194 -1092 -370 -90 -44 -171 -79 -181 -79 -49 0 -312 392 -512 761 -183 339 -255 560 -217 667 25 74 -40 173 -137 206 -61 21 -70 20 -94 -4 -16 -16 -20 -33 -20 -80 0 -47 -4 -64 -20 -80 -27 -27 -42 -25 -110 13 -66 36 -84 33 -109 -19 -20 -40 -19 -141 2 -180 21 -40 72 -84 98 -84 34 0 82 -31 153 -99 81 -78 126 -135 233 -296 200 -300 436 -746 481 -908 13 -45 8 -51 -85 -110 -179 -114 -420 -302 -617 -481 l-88 -81 -90 94 c-102 106 -218 249 -218 268 0 7 12 15 28 19 106 22 193 89 239 182 36 74 39 181 6 253 -62 139 -209 218 -351 188 -70 -14 -102 -30 -152 -75 -39 -35 -41 -36 -132 -38 -113 -2 -170 -27 -241 -106 -57 -64 -77 -121 -77 -225 0 -79 -1 -82 -34 -114 -54 -52 -80 -122 -81 -211 0 -181 133 -315 315 -314 100 0 163 28 230 101 38 42 55 70 71 124 11 38 25 69 29 69 30 0 350 -282 350 -308 -1 -9 -39 -60 -87 -112 -204 -226 -384 -465 -535 -712 -53 -87 -96 -148 -105 -148 -9 0 -68 28 -132 62 -265 141 -570 330 -706 438 -121 96 -215 214 -215 268 0 24 -70 89 -105 98 -14 3 -54 4 -90 2 -104 -6 -128 -45 -80 -129 27 -48 32 -93 13 -106 -7 -4 -43 -10 -80 -14 -37 -3 -74 -12 -83 -19 -47 -39 15 -178 99 -219 46 -23 52 -24 110 -12 104 21 243 -16 470 -123 207 -98 670 -367 706 -411 11 -13 4 -34 -40 -128 -78 -166 -163 -381 -221 -560 -28 -88 -57 -161 -65 -164 -30 -11 -464 141 -464 163 0 3 18 24 41 46 122 119 128 321 11 441 -125 130 -320 136 -451 14 -33 -32 -91 -138 -91 -168 0 -10 -25 -29 -64 -48 -104 -51 -160 -128 -181 -252 -10 -56 12 -140 54 -210 33 -54 37 -68 30 -94 -5 -16 -9 -59 -9 -95 0 -202 201 -352 395 -295 175 50 271 222 220 391 -9 31 -11 52 -5 58 6 6 43 5 101 -3 113 -16 366 -74 379 -87 6 -6 1 -50 -15 -119 -105 -471 -136 -1055 -81 -1527 24 -204 31 -183 -71 -202 -311 -57 -676 -90 -918 -83 -206 5 -269 19 -346 72 -70 48 -127 49 -195 3 -26 -18 -61 -50 -78 -71 -38 -47 -31 -61 48 -102 103 -53 106 -80 16 -155 -27 -23 -50 -49 -50 -59 0 -28 29 -60 78 -85 101 -51 157 -43 237 35 61 58 171 111 300 144 204 52 627 109 892 122 l142 6 5 -24 c81 -371 188 -702 331 -1018 54 -121 62 -103 -75 -180 -220 -125 -558 -280 -580 -266 -6 3 -10 39 -10 78 0 177 -132 309 -310 311 -127 1 -227 -61 -287 -177 -23 -44 -28 -64 -28 -132 0 -66 5 -90 27 -138 l27 -57 -21 -48 c-27 -59 -30 -188 -5 -242 46 -102 119 -164 225 -191 61 -15 67 -19 101 -70 70 -104 175 -156 295 -147 106 9 210 77 257 169 42 83 41 207 -3 292 -24 48 -96 120 -137 137 -17 7 -31 18 -31 26 0 37 626 405 664 391 6 -3 44 -62 85 -133 151 -266 345 -538 541 -758 52 -59 113 -127 134 -152 l40 -45 -50 -50 c-110 -113 -318 -284 -334 -274 -4 3 -11 21 -15 42 -16 89 -86 178 -175 224 -65 34 -204 34 -272 1 -106 -52 -170 -150 -176 -269 -5 -92 16 -156 71 -219 l42 -48 0 -85 c1 -105 24 -164 92 -233 67 -68 128 -92 235 -92 83 -1 88 -2 120 -32 53 -51 114 -77 194 -82 105 -7 163 16 240 92 71 72 94 126 94 225 0 144 -112 280 -253 306 -25 5 -37 13 -37 24 0 31 294 371 321 371 5 0 48 -36 96 -81 162 -149 445 -367 624 -482 31 -19 60 -40 63 -45 18 -30 -134 -363 -289 -632 -264 -460 -444 -682 -581 -719 -57 -15 -104 -68 -115 -128 -13 -67 5 -148 37 -169 22 -15 27 -14 83 15 33 17 69 31 79 31 34 0 52 -32 52 -94 0 -80 11 -96 63 -96 30 0 59 9 97 33 65 38 96 90 91 152 -10 127 -4 190 29 290 61 182 289 608 473 885 89 133 192 267 217 280 16 8 44 -2 148 -54 331 -166 681 -290 1057 -376 77 -17 143 -37 148 -43 25 -38 -50 -484 -145 -852 -94 -370 -195 -594 -289 -648 -45 -25 -79 -85 -79 -139 0 -73 58 -178 98 -178 8 0 39 22 68 50 75 71 111 66 139 -22 22 -67 41 -98 61 -98 28 0 106 62 135 108 35 56 40 128 11 170 -68 97 -67 286 3 669 52 283 165 697 232 845 l27 61 75 -6 c42 -4 139 -12 216 -18 180 -15 644 -6 830 16 173 20 394 58 532 90 58 14 109 23 114 20 11 -8 24 -54 58 -220 35 -167 47 -260 34 -268 -5 -3 -32 1 -59 9 -62 20 -155 14 -217 -14 -59 -26 -132 -100 -160 -160 -31 -68 -30 -187 2 -260 30 -66 113 -144 177 -166 52 -17 151 -21 199 -7 26 7 40 3 94 -30 80 -48 155 -65 228 -50 112 22 187 79 233 177 21 43 37 64 49 64 33 0 139 60 172 98 110 125 109 304 -2 426 -66 72 -130 100 -229 101 -66 0 -84 -4 -143 -33 -38 -19 -79 -48 -95 -68 -15 -19 -31 -34 -35 -34 -5 0 -21 28 -36 62 -33 73 -131 371 -131 398 0 15 18 24 88 45 221 68 458 163 690 277 l143 71 25 -24 c105 -97 367 -509 540 -847 133 -261 183 -417 170 -529 -10 -85 -9 -109 10 -145 39 -78 171 -138 219 -98 10 9 15 31 15 74 0 69 18 106 53 106 12 0 48 -14 80 -31 55 -28 60 -29 82 -15 39 26 56 113 35 187 -12 43 -73 109 -101 109 -63 0 -204 125 -311 275 -196 277 -449 726 -538 956 -46 119 -47 117 73 195 195 128 402 289 587 458 52 47 100 86 106 86 13 0 205 -210 266 -291 21 -28 38 -57 38 -64 0 -7 -21 -18 -46 -24 -70 -18 -115 -44 -161 -94 -51 -55 -68 -87 -82 -157 -28 -135 43 -275 171 -340 112 -55 252 -38 344 43 l48 42 85 0 c111 0 172 26 240 101 62 67 83 128 82 233 -1 75 0 78 33 110 55 53 80 122 81 216 0 68 -4 89 -28 137 -32 65 -90 121 -156 152 -71 32 -199 30 -267 -6 -89 -47 -174 -164 -174 -239 0 -45 -30 -31 -150 70 -116 97 -220 198 -220 213 0 8 31 48 68 89 465 507 825 1124 1017 1744 21 66 41 124 46 129 11 12 102 -26 329 -139 266 -132 497 -269 507 -301 2 -6 -19 -26 -46 -43 -164 -106 -194 -333 -63 -482 17 -19 55 -48 84 -65 48 -26 62 -29 148 -29 80 0 102 4 138 23 61 32 115 84 143 136 21 40 29 46 72 56 101 21 183 85 228 176 34 68 34 196 1 268 l-22 49 22 46 c19 37 23 63 23 136 0 105 -20 158 -86 224 -66 66 -119 86 -224 86 -78 0 -97 -4 -140 -27 -110 -57 -175 -168 -175 -298 0 -49 -4 -70 -12 -70 -82 0 -813 359 -869 426 -10 12 -7 39 14 142 74 354 100 611 99 982 0 157 -4 325 -9 373 -6 60 -6 93 2 102 50 67 689 214 1126 261 224 23 384 7 452 -46 32 -26 120 -29 164 -7 34 18 99 87 115 123 15 33 1 47 -77 77 -99 38 -103 74 -17 152 39 35 44 45 38 68 -8 35 -67 73 -133 88 -73 17 -124 -4 -186 -75 -76 -88 -227 -154 -512 -225 -399 -99 -981 -179 -1011 -140 -6 8 -19 59 -29 114 -45 251 -137 571 -241 838 -30 77 -54 147 -54 156 0 70 808 445 1158 537 132 35 266 43 327 19 77 -29 154 -4 205 66 73 101 61 152 -39 164 -33 4 -67 12 -77 19 -27 20 -19 62 21 120 27 40 35 60 30 76 -10 32 -79 60 -148 60 -88 0 -129 -27 -172 -116 -45 -92 -184 -194 -444 -323 -396 -198 -943 -397 -989 -359 -7 7 -27 38 -43 71 -68 134 -222 381 -331 530 -28 37 -48 73 -45 81 7 17 169 158 300 259 184 144 445 317 477 317 14 0 18 -12 23 -56 11 -111 83 -211 186 -257 65 -30 187 -30 252 0 114 52 189 165 189 283 0 84 -13 127 -56 190 -33 48 -34 53 -23 87 18 54 7 179 -20 232 -52 100 -165 171 -272 171 -49 0 -53 2 -109 59 -77 78 -144 105 -250 99 -121 -7 -215 -70 -267 -176 -37 -78 -39 -193 -3 -267 33 -69 105 -138 165 -160 28 -10 54 -22 60 -27 19 -17 -206 -221 -436 -395 -122 -92 -314 -223 -328 -223 -5 0 -42 39 -82 87 -257 306 -664 664 -999 879 -73 47 -90 63 -90 82 0 61 135 348 293 624 259 451 437 670 574 707 57 15 109 75 118 134 9 59 -2 120 -27 152 -25 32 -37 32 -101 -5 -63 -35 -80 -37 -107 -10 -16 16 -20 33 -20 85 0 58 -3 66 -25 81 -33 21 -80 9 -152 -39 -39 -26 -51 -41 -65 -84 -14 -41 -15 -58 -6 -83 16 -47 4 -162 -28 -260 -99 -306 -620 -1170 -705 -1170 -11 0 -72 26 -137 59 -243 121 -511 227 -767 300 l-130 38 3 84 c8 243 134 879 178 896 8 3 30 -9 51 -27 60 -53 117 -74 203 -74 93 0 155 25 222 91 65 64 92 128 92 223 1 62 -4 85 -27 132 -38 77 -112 143 -185 164 -92 26 -100 31 -121 72 -29 57 -102 117 -179 146 -82 32 -119 31 -198 0z"
       id="path3763"
       style="fill:#ff5555" />
  </g>
</svg>
